<?xml version="1.0" encoding="utf-8"?>
<!-- Generator: Adobe Illustrator 24.0.2, SVG Export Plug-In . SVG Version: 6.00 Build 0)  -->
<svg version="1.1" id="Imagotipo_1" xmlns="http://www.w3.org/2000/svg" xmlns:xlink="http://www.w3.org/1999/xlink" x="0px"
	 y="0px" viewBox="0 0 595.28 230.372" enable-background="new 0 0 595.28 230.372" xml:space="preserve">
<g id="Logotipo">
	<path fill="#00953B" d="M214.494,78.269h3.768c0.504,0.106,0.757,0.431,0.757,0.977v22.806c0,0.373,0.212,0.637,0.638,0.797
		c0.053,0.014,0.112,0.02,0.179,0.02h3.608c0.372,0,0.639-0.212,0.798-0.638c0.014-0.053,0.019-0.112,0.019-0.179V79.246
		c0-0.546,0.254-0.871,0.759-0.977h3.728c0.385,0,0.651,0.232,0.797,0.697v23.306c0,1.315-0.519,2.592-1.555,3.828
		c-0.598,0.623-1.116,1.049-1.555,1.275c-0.904,0.531-2.054,0.797-3.449,0.797h-2.671c-1.583,0-2.858-0.345-3.828-1.037
		c-1.169-0.731-2.007-1.859-2.512-3.388c-0.173-0.519-0.259-1.243-0.259-2.174V79.325c0-0.505,0.179-0.843,0.539-1.016
		C214.387,78.283,214.466,78.269,214.494,78.269"/>
	<path fill="#00953B" d="M238.297,78.269c0.386,0,0.697,0.372,0.937,1.116c0.053,0.053,2.285,5.27,6.698,15.65h0.021v-15.71
		c0-0.505,0.179-0.843,0.537-1.016c0.134-0.026,0.213-0.04,0.239-0.04h3.749c0.345,0,0.598,0.232,0.757,0.697v28.449
		c-0.106,0.505-0.431,0.757-0.977,0.757h-3.328c-0.532,0-0.885-0.319-1.057-0.956c-0.08-0.16-2.38-5.416-6.898-15.769h-0.02v15.709
		c0,0.477-0.186,0.791-0.558,0.937c-0.107,0.053-0.259,0.079-0.459,0.079h-3.21c-0.717,0-1.076-0.359-1.076-1.076v-27.91
		c0-0.465,0.233-0.771,0.697-0.917H238.297z"/>
	<path fill="#00953B" d="M256.218,78.269h3.768c0.345,0,0.599,0.232,0.757,0.697v28.449c-0.106,0.505-0.431,0.757-0.976,0.757h-3.23
		c-0.717,0-1.076-0.359-1.076-1.076v-27.85C255.461,78.7,255.713,78.375,256.218,78.269"/>
	<path fill="#00953B" d="M265.249,78.269h3.868c0.305,0,0.551,0.219,0.738,0.658c2.631,11.137,3.946,16.726,3.946,16.765h0.06
		c2.525-10.751,3.868-16.412,4.027-16.985c0.227-0.292,0.445-0.438,0.658-0.438h3.867c0.386,0,0.652,0.232,0.798,0.697v0.259
		c0,0.081-1.742,7.464-5.223,22.149c-0.944,3.935-1.456,6.041-1.535,6.319c-0.199,0.319-0.479,0.479-0.837,0.479h-3.569
		c-0.465,0-0.771-0.232-0.917-0.697c-4.412-18.606-6.645-28.049-6.698-28.329C264.525,78.561,264.797,78.269,265.249,78.269"/>
	<path fill="#00953B" d="M296.886,78.269c0.386,0,0.651,0.232,0.798,0.697v3.809c0,0.331-0.233,0.584-0.698,0.757
		c-0.146,0.014-0.266,0.019-0.359,0.019h-5.96v8.772h4.326c0.424,0,0.717,0.187,0.877,0.559c0.053,0.093,0.079,0.239,0.079,0.438
		v3.21c0,0.731-0.359,1.097-1.076,1.097h-4.206v5.242h6.08c0.505,0,0.817,0.253,0.937,0.758v3.767c0,0.333-0.233,0.586-0.698,0.759
		c-0.146,0.012-0.266,0.019-0.359,0.019H286.3c-0.625-0.067-0.937-0.378-0.937-0.937V79.186c0-0.465,0.233-0.771,0.698-0.917
		H296.886z"/>
	<path fill="#00953B" d="M302.091,78.269h9.17c1.475,0,2.877,0.631,4.206,1.894c1.117,1.301,1.675,2.631,1.675,3.987v9.309
		c0,1.051-0.359,2.141-1.077,3.27c0.718,1.116,1.077,2.199,1.077,3.25v7.435c-0.107,0.506-0.433,0.758-0.977,0.758h-3.289
		c-0.465,0-0.779-0.187-0.937-0.558c-0.054-0.094-0.081-0.247-0.081-0.458v-6.959c0-0.371-0.206-0.637-0.618-0.797
		c-0.065-0.013-0.132-0.02-0.199-0.02h-4.425v7.716c0,0.717-0.359,1.076-1.077,1.076h-3.209c-0.479,0-0.792-0.187-0.938-0.558
		c-0.053-0.094-0.079-0.247-0.079-0.458V79.325c0-0.505,0.179-0.843,0.538-1.016C301.984,78.282,302.063,78.269,302.091,78.269
		 M306.616,83.551v10.526h4.425c0.372,0,0.639-0.212,0.798-0.638c0.014-0.053,0.019-0.112,0.019-0.179v-8.892
		c0-0.372-0.206-0.637-0.618-0.796c-0.065-0.014-0.132-0.021-0.199-0.021H306.616z"/>
	<path fill="#00953B" d="M327.149,78.269h4.048c1.475,0,2.877,0.632,4.206,1.894c1.117,1.302,1.675,2.631,1.675,3.987v2.173
		c-0.107,0.491-0.433,0.738-0.977,0.738h-3.29c-0.464,0-0.778-0.187-0.936-0.559c-0.055-0.093-0.081-0.239-0.081-0.438v-1.696
		c0-0.371-0.206-0.637-0.618-0.796c-0.066-0.014-0.132-0.021-0.199-0.021h-3.608c-0.372,0-0.638,0.206-0.798,0.618
		c-0.014,0.067-0.019,0.134-0.019,0.199v5.364c0,0.373,0.211,0.637,0.637,0.797c0.053,0.014,0.113,0.02,0.18,0.02h3.15
		c1.648,0,2.977,0.385,3.986,1.156c0.559,0.386,1.097,0.944,1.615,1.675c0.639,1.09,0.958,2.12,0.958,3.09v5.802
		c0,1.315-0.519,2.592-1.555,3.828c-0.599,0.623-1.116,1.049-1.555,1.275c-0.905,0.531-2.054,0.797-3.449,0.797h-2.671
		c-1.583,0-2.858-0.345-3.828-1.037c-1.169-0.731-2.007-1.859-2.513-3.388c-0.172-0.519-0.258-1.243-0.258-2.174v-1.136
		c0-0.718,0.359-1.076,1.076-1.076h3.209c0.479,0,0.791,0.185,0.937,0.558c0.054,0.094,0.081,0.24,0.081,0.439v1.694
		c0,0.373,0.211,0.637,0.637,0.797c0.053,0.014,0.113,0.02,0.18,0.02h3.608c0.371,0,0.639-0.212,0.797-0.638
		c0.014-0.053,0.02-0.112,0.02-0.179V96.69c0-0.386-0.206-0.651-0.618-0.798c-0.066-0.026-0.132-0.04-0.199-0.04h-3.129
		c-1.583,0-2.858-0.338-3.828-1.016c-1.169-0.745-2.007-1.881-2.513-3.41c-0.172-0.504-0.258-1.222-0.258-2.152v-4.446
		c0-1.648,0.385-2.978,1.156-3.988c0.372-0.558,0.923-1.096,1.655-1.615C325.149,78.588,326.179,78.269,327.149,78.269"/>
	<path fill="#00953B" d="M341.941,78.269h3.768c0.345,0,0.599,0.232,0.757,0.697v28.449c-0.106,0.505-0.431,0.757-0.976,0.757h-3.23
		c-0.717,0-1.076-0.359-1.076-1.076v-27.85C341.184,78.7,341.436,78.375,341.941,78.269"/>
	<path fill="#00953B" d="M360.383,78.269c1.475,0,2.877,0.631,4.206,1.894c1.117,1.301,1.675,2.631,1.675,3.987v18.121
		c0,1.316-0.519,2.592-1.555,3.828c-0.598,0.624-1.116,1.05-1.555,1.275c-0.904,0.532-2.054,0.798-3.449,0.798h-8.194
		c-0.717,0-1.076-0.359-1.076-1.076v-27.91c0-0.465,0.232-0.771,0.697-0.917H360.383z M355.738,83.551v19.317h4.425
		c0.372,0,0.639-0.211,0.798-0.637c0.014-0.053,0.019-0.113,0.019-0.18V84.368c0-0.372-0.206-0.637-0.618-0.796
		c-0.065-0.014-0.132-0.021-0.199-0.021H355.738z"/>
	<path fill="#00953B" d="M376.27,78.269h4.048c1.475,0,2.877,0.631,4.206,1.894c1.117,1.301,1.675,2.631,1.675,3.986v23.245
		c0,0.332-0.233,0.586-0.697,0.758c-0.148,0.013-0.268,0.02-0.36,0.02h-3.209c-0.465,0-0.779-0.187-0.937-0.558
		c-0.054-0.094-0.081-0.247-0.081-0.458v-9.53h-5.242v9.47c0,0.717-0.359,1.076-1.077,1.076h-3.209
		c-0.479,0-0.792-0.187-0.938-0.558c-0.053-0.094-0.079-0.247-0.079-0.458V84.827c0-1.648,0.385-2.977,1.156-3.988
		c0.372-0.558,0.923-1.095,1.655-1.614C374.27,78.587,375.3,78.269,376.27,78.269 M375.673,84.368v7.955h5.242v-7.955
		c0-0.372-0.206-0.638-0.618-0.796c-0.065-0.014-0.132-0.021-0.199-0.021h-3.608c-0.372,0-0.637,0.206-0.797,0.618
		C375.679,84.236,375.673,84.303,375.673,84.368"/>
	<path fill="#00953B" d="M400.254,78.269c1.475,0,2.877,0.631,4.206,1.894c1.117,1.301,1.675,2.631,1.675,3.987v18.121
		c0,1.316-0.519,2.592-1.555,3.828c-0.598,0.624-1.116,1.05-1.555,1.275c-0.904,0.532-2.054,0.798-3.449,0.798h-8.194
		c-0.717,0-1.076-0.359-1.076-1.076v-27.91c0-0.465,0.232-0.771,0.697-0.917H400.254z M395.609,83.551v19.317h4.425
		c0.372,0,0.639-0.211,0.798-0.637c0.013-0.053,0.019-0.113,0.019-0.18V84.368c0-0.372-0.206-0.637-0.618-0.796
		c-0.065-0.014-0.132-0.021-0.199-0.021H395.609z"/>
	<path fill="#00953B" d="M424.854,78.269c0.386,0,0.697,0.372,0.937,1.116c0.053,0.053,2.285,5.27,6.698,15.65h0.021v-15.71
		c0-0.505,0.179-0.843,0.537-1.016c0.134-0.026,0.213-0.04,0.239-0.04h3.749c0.345,0,0.598,0.232,0.757,0.697v28.449
		c-0.106,0.505-0.431,0.757-0.977,0.757h-3.328c-0.532,0-0.885-0.319-1.057-0.956c-0.08-0.16-2.38-5.416-6.898-15.769h-0.02v15.709
		c0,0.477-0.186,0.791-0.558,0.937c-0.107,0.053-0.259,0.079-0.459,0.079h-3.21c-0.717,0-1.076-0.359-1.076-1.076v-27.91
		c0-0.465,0.233-0.771,0.697-0.917H424.854z"/>
	<path fill="#00953B" d="M447.918,78.269h4.048c1.475,0,2.877,0.631,4.206,1.894c1.117,1.301,1.675,2.631,1.675,3.986v23.245
		c0,0.332-0.233,0.586-0.698,0.758c-0.147,0.013-0.267,0.02-0.359,0.02h-3.209c-0.465,0-0.779-0.187-0.937-0.558
		c-0.055-0.094-0.081-0.247-0.081-0.458v-9.53h-5.242v9.47c0,0.717-0.359,1.076-1.077,1.076h-3.209
		c-0.479,0-0.792-0.187-0.938-0.558c-0.053-0.094-0.079-0.247-0.079-0.458V84.827c0-1.648,0.385-2.977,1.156-3.988
		c0.372-0.558,0.923-1.095,1.655-1.614C445.918,78.587,446.948,78.269,447.918,78.269 M447.321,84.368v7.955h5.242v-7.955
		c0-0.372-0.206-0.638-0.618-0.796c-0.065-0.014-0.132-0.021-0.199-0.021h-3.608c-0.372,0-0.637,0.206-0.798,0.618
		C447.327,84.236,447.321,84.303,447.321,84.368"/>
	<path fill="#00953B" d="M467.854,78.269h4.048c1.475,0,2.877,0.632,4.206,1.894c1.117,1.302,1.675,2.631,1.675,3.987v3.927
		c-0.107,0.492-0.433,0.737-0.977,0.737h-3.29c-0.464,0-0.778-0.185-0.936-0.558c-0.055-0.092-0.081-0.239-0.081-0.438v-3.45
		c0-0.371-0.206-0.637-0.618-0.796c-0.066-0.014-0.132-0.021-0.199-0.021h-3.608c-0.372,0-0.638,0.206-0.798,0.618
		c-0.014,0.067-0.019,0.134-0.019,0.199v17.684c0,0.373,0.211,0.637,0.637,0.797c0.053,0.014,0.113,0.02,0.18,0.02h3.608
		c0.371,0,0.639-0.212,0.797-0.638c0.014-0.053,0.02-0.112,0.02-0.179v-3.449c0-0.465,0.193-0.777,0.579-0.937
		c0.092-0.053,0.239-0.08,0.438-0.08h3.33c0.504,0,0.817,0.252,0.937,0.758v3.928c0,1.315-0.519,2.592-1.555,3.828
		c-0.599,0.623-1.116,1.049-1.555,1.275c-0.905,0.531-2.054,0.797-3.449,0.797h-2.671c-1.583,0-2.858-0.345-3.828-1.037
		c-1.169-0.731-2.007-1.859-2.513-3.388c-0.172-0.519-0.258-1.243-0.258-2.174V84.828c0-1.648,0.385-2.978,1.156-3.988
		c0.372-0.558,0.923-1.096,1.655-1.615C465.854,78.588,466.884,78.269,467.854,78.269"/>
	<path fill="#00953B" d="M482.646,78.269h3.768c0.345,0,0.599,0.232,0.757,0.697v28.449c-0.106,0.505-0.431,0.757-0.976,0.757h-3.23
		c-0.717,0-1.076-0.359-1.076-1.076v-27.85C481.889,78.7,482.141,78.375,482.646,78.269"/>
	<path fill="#00953B" d="M497.038,78.269h4.048c1.475,0,2.877,0.631,4.206,1.894c1.117,1.301,1.675,2.631,1.675,3.986v18.122
		c0,1.316-0.519,2.592-1.555,3.828c-0.598,0.624-1.116,1.05-1.555,1.275c-0.904,0.532-2.054,0.798-3.449,0.798h-2.671
		c-1.583,0-2.858-0.346-3.828-1.037c-1.169-0.731-2.007-1.86-2.512-3.388c-0.173-0.52-0.259-1.243-0.259-2.175V84.827
		c0-1.648,0.385-2.977,1.156-3.988c0.372-0.558,0.923-1.095,1.655-1.614C495.038,78.587,496.068,78.269,497.038,78.269
		 M496.441,84.368v17.683c0,0.373,0.212,0.638,0.638,0.798c0.052,0.014,0.112,0.019,0.179,0.019h3.608
		c0.372,0,0.639-0.211,0.798-0.637c0.014-0.053,0.019-0.113,0.019-0.18V84.368c0-0.372-0.206-0.638-0.618-0.796
		c-0.065-0.014-0.132-0.021-0.199-0.021h-3.608c-0.372,0-0.637,0.206-0.798,0.618C496.447,84.236,496.441,84.303,496.441,84.368"/>
	<path fill="#00953B" d="M515.718,78.269c0.386,0,0.697,0.372,0.937,1.116c0.053,0.053,2.285,5.27,6.698,15.65h0.021v-15.71
		c0-0.505,0.179-0.843,0.537-1.016c0.134-0.026,0.213-0.04,0.239-0.04h3.749c0.345,0,0.598,0.232,0.757,0.697v28.449
		c-0.106,0.505-0.431,0.757-0.977,0.757h-3.328c-0.532,0-0.885-0.319-1.057-0.956c-0.08-0.16-2.38-5.416-6.898-15.769h-0.02v15.709
		c0,0.477-0.186,0.791-0.558,0.937c-0.107,0.053-0.259,0.079-0.459,0.079h-3.21c-0.717,0-1.076-0.359-1.076-1.076v-27.91
		c0-0.465,0.233-0.771,0.697-0.917H515.718z"/>
	<path fill="#00953B" d="M538.784,78.269h4.048c1.475,0,2.877,0.631,4.206,1.894c1.117,1.301,1.675,2.631,1.675,3.986v23.245
		c0,0.332-0.233,0.586-0.697,0.758c-0.148,0.013-0.268,0.02-0.36,0.02h-3.209c-0.465,0-0.778-0.187-0.937-0.558
		c-0.055-0.094-0.081-0.247-0.081-0.458v-9.53h-5.242v9.47c0,0.717-0.359,1.076-1.077,1.076h-3.209
		c-0.479,0-0.792-0.187-0.938-0.558c-0.053-0.094-0.079-0.247-0.079-0.458V84.827c0-1.648,0.385-2.977,1.156-3.988
		c0.372-0.558,0.923-1.095,1.655-1.614C536.784,78.587,537.814,78.269,538.784,78.269 M538.187,84.368v7.955h5.242v-7.955
		c0-0.372-0.206-0.638-0.618-0.796c-0.065-0.014-0.132-0.021-0.199-0.021h-3.608c-0.372,0-0.637,0.206-0.798,0.618
		C538.193,84.236,538.187,84.303,538.187,84.368"/>
	<path fill="#00953B" d="M553.576,78.269h3.768c0.333,0,0.585,0.232,0.757,0.697c0.014,0.147,0.021,0.266,0.021,0.359v23.544h6.08
		c0.505,0,0.817,0.253,0.937,0.758v3.767c0,0.333-0.233,0.586-0.697,0.759c-0.147,0.012-0.266,0.019-0.36,0.019h-10.326
		c-0.625-0.067-0.937-0.378-0.937-0.937V79.246C552.819,78.7,553.071,78.375,553.576,78.269"/>
	<path fill="#00953B" d="M223.665,121.848c1.475,0,2.877,0.631,4.206,1.894c1.117,1.301,1.675,2.631,1.675,3.987v18.121
		c0,1.316-0.519,2.592-1.555,3.828c-0.598,0.624-1.116,1.05-1.555,1.275c-0.904,0.532-2.054,0.798-3.449,0.798h-8.194
		c-0.717,0-1.076-0.359-1.076-1.076v-27.91c0-0.465,0.232-0.771,0.697-0.917H223.665z M219.02,127.13v19.317h4.425
		c0.372,0,0.639-0.211,0.798-0.637c0.014-0.053,0.019-0.113,0.019-0.18v-17.683c0-0.372-0.206-0.637-0.618-0.796
		c-0.065-0.014-0.132-0.021-0.199-0.021H219.02z"/>
	<path fill="#00953B" d="M245.664,121.848c0.386,0,0.651,0.232,0.798,0.697v3.809c0,0.331-0.233,0.584-0.698,0.757
		c-0.146,0.014-0.266,0.019-0.359,0.019h-5.96v8.772h4.326c0.424,0,0.717,0.187,0.877,0.559c0.053,0.093,0.079,0.239,0.079,0.438
		v3.21c0,0.731-0.359,1.097-1.076,1.097h-4.206v5.242h6.08c0.505,0,0.817,0.253,0.937,0.758v3.767c0,0.333-0.233,0.586-0.698,0.759
		c-0.146,0.012-0.266,0.019-0.359,0.019h-10.327c-0.625-0.067-0.937-0.378-0.937-0.937v-28.049c0-0.465,0.233-0.771,0.698-0.917
		H245.664z"/>
	<path fill="#00953B" d="M266.939,121.848h4.048c1.475,0,2.877,0.632,4.206,1.894c1.117,1.302,1.675,2.631,1.675,3.987v2.173
		c-0.107,0.491-0.433,0.738-0.977,0.738h-3.29c-0.464,0-0.778-0.187-0.936-0.559c-0.055-0.093-0.081-0.239-0.081-0.438v-1.695
		c0-0.372-0.206-0.638-0.618-0.797c-0.066-0.014-0.132-0.021-0.199-0.021h-3.608c-0.372,0-0.638,0.206-0.798,0.618
		c-0.014,0.067-0.019,0.134-0.019,0.2v5.363c0,0.373,0.211,0.637,0.637,0.797c0.053,0.014,0.113,0.02,0.18,0.02h3.15
		c1.648,0,2.977,0.385,3.986,1.156c0.559,0.386,1.097,0.944,1.615,1.675c0.639,1.09,0.958,2.12,0.958,3.09v5.802
		c0,1.315-0.519,2.592-1.555,3.828c-0.599,0.623-1.116,1.049-1.555,1.275c-0.905,0.531-2.054,0.797-3.449,0.797h-2.671
		c-1.583,0-2.858-0.345-3.828-1.037c-1.169-0.731-2.007-1.859-2.513-3.388c-0.172-0.519-0.258-1.243-0.258-2.174v-1.136
		c0-0.718,0.359-1.076,1.076-1.076h3.209c0.479,0,0.791,0.185,0.937,0.558c0.054,0.094,0.081,0.24,0.081,0.439v1.694
		c0,0.373,0.211,0.637,0.637,0.797c0.053,0.014,0.113,0.02,0.18,0.02h3.608c0.372,0,0.639-0.212,0.797-0.638
		c0.014-0.053,0.02-0.112,0.02-0.179v-5.362c0-0.386-0.206-0.651-0.618-0.798c-0.066-0.026-0.132-0.04-0.199-0.04h-3.129
		c-1.583,0-2.858-0.338-3.828-1.016c-1.169-0.745-2.007-1.881-2.513-3.41c-0.172-0.504-0.258-1.222-0.258-2.152v-4.446
		c0-1.648,0.385-2.978,1.156-3.988c0.372-0.558,0.923-1.096,1.655-1.615C264.939,122.167,265.969,121.848,266.939,121.848"/>
	<path fill="#00953B" d="M287.364,121.848h4.048c1.475,0,2.877,0.632,4.206,1.895c1.117,1.301,1.675,2.631,1.675,3.986v23.245
		c0,0.332-0.233,0.586-0.697,0.758c-0.148,0.013-0.268,0.02-0.36,0.02h-3.209c-0.465,0-0.779-0.187-0.937-0.559
		c-0.054-0.093-0.081-0.246-0.081-0.457v-9.53h-5.242v9.47c0,0.717-0.359,1.076-1.077,1.076h-3.209
		c-0.479,0-0.792-0.187-0.938-0.559c-0.053-0.093-0.079-0.246-0.079-0.457v-22.329c0-1.648,0.385-2.977,1.156-3.988
		c0.372-0.558,0.923-1.095,1.655-1.614C285.364,122.167,286.394,121.848,287.364,121.848 M286.767,127.948v7.955h5.242v-7.955
		c0-0.372-0.206-0.638-0.618-0.796c-0.065-0.014-0.132-0.021-0.199-0.021h-3.608c-0.372,0-0.637,0.206-0.797,0.618
		C286.773,127.816,286.767,127.883,286.767,127.948"/>
	<path fill="#00953B" d="M306.534,121.848c0.386,0,0.697,0.372,0.937,1.116c0.053,0.053,2.285,5.27,6.698,15.65h0.021v-15.71
		c0-0.505,0.179-0.843,0.537-1.016c0.134-0.026,0.213-0.04,0.239-0.04h3.749c0.345,0,0.598,0.232,0.757,0.697v28.449
		c-0.106,0.505-0.431,0.757-0.977,0.757h-3.328c-0.532,0-0.885-0.319-1.057-0.956c-0.08-0.16-2.38-5.416-6.898-15.769h-0.02v15.709
		c0,0.477-0.186,0.791-0.558,0.937c-0.107,0.053-0.259,0.079-0.459,0.079h-3.21c-0.717,0-1.076-0.359-1.076-1.076v-27.91
		c0-0.465,0.233-0.771,0.697-0.917H306.534z"/>
	<path fill="#00953B" d="M339.63,121.848c0.372,0,0.69,0.393,0.956,1.176c0.041,0.053,1.907,4.319,5.603,12.799h0.039
		c3.828-8.758,5.814-13.29,5.962-13.596c0.199-0.252,0.405-0.379,0.618-0.379h4.026c0.385,0,0.65,0.232,0.797,0.697v28.449
		c-0.106,0.505-0.432,0.757-0.976,0.757h-3.229c-0.719,0-1.078-0.359-1.078-1.076v-15.649h-0.019
		c-2.22,5.116-3.383,7.774-3.49,7.974c-0.211,0.226-0.438,0.338-0.676,0.338h-3.849c-0.465,0-0.784-0.285-0.956-0.857
		c-2.154-4.864-3.244-7.35-3.27-7.455h-0.02v15.709c0,0.477-0.186,0.791-0.558,0.937c-0.093,0.053-0.246,0.079-0.459,0.079h-3.21
		c-0.717,0-1.076-0.359-1.076-1.076v-27.91c0-0.465,0.233-0.771,0.698-0.917H339.63z"/>
	<path fill="#00953B" d="M367.988,121.848h4.048c1.475,0,2.877,0.632,4.206,1.895c1.117,1.301,1.675,2.631,1.675,3.986v23.245
		c0,0.332-0.233,0.586-0.697,0.758c-0.148,0.013-0.268,0.02-0.36,0.02h-3.209c-0.465,0-0.779-0.187-0.937-0.559
		c-0.054-0.093-0.081-0.246-0.081-0.457v-9.53h-5.242v9.47c0,0.717-0.359,1.076-1.077,1.076h-3.209
		c-0.479,0-0.792-0.187-0.938-0.559c-0.053-0.093-0.079-0.246-0.079-0.457v-22.329c0-1.648,0.385-2.977,1.156-3.988
		c0.372-0.558,0.923-1.095,1.655-1.614C365.988,122.167,367.018,121.848,367.988,121.848 M367.391,127.948v7.955h5.242v-7.955
		c0-0.372-0.206-0.638-0.618-0.796c-0.065-0.014-0.132-0.021-0.199-0.021h-3.608c-0.372,0-0.637,0.206-0.798,0.618
		C367.397,127.816,367.391,127.883,367.391,127.948"/>
	<path fill="#00953B" d="M383.292,121.848h9.17c1.475,0,2.877,0.631,4.206,1.894c1.117,1.301,1.675,2.631,1.675,3.987v9.309
		c0,1.051-0.359,2.141-1.077,3.27c0.718,1.116,1.077,2.199,1.077,3.25v7.436c-0.107,0.505-0.433,0.757-0.977,0.757h-3.289
		c-0.465,0-0.779-0.187-0.937-0.558c-0.054-0.094-0.081-0.247-0.081-0.458v-6.959c0-0.371-0.206-0.637-0.618-0.797
		c-0.065-0.013-0.132-0.02-0.199-0.02h-4.425v7.716c0,0.717-0.359,1.076-1.077,1.076h-3.209c-0.479,0-0.792-0.187-0.938-0.558
		c-0.053-0.094-0.079-0.247-0.079-0.458v-27.831c0-0.505,0.179-0.843,0.538-1.016C383.185,121.861,383.264,121.848,383.292,121.848
		 M387.817,127.13v10.526h4.425c0.372,0,0.639-0.212,0.798-0.638c0.014-0.053,0.019-0.112,0.019-0.179v-8.892
		c0-0.372-0.206-0.637-0.618-0.796c-0.065-0.014-0.132-0.021-0.199-0.021H387.817z"/>
	<path fill="#00953B" d="M402.699,121.848h14.313c0.347,0,0.599,0.232,0.759,0.697v3.828c-0.107,0.505-0.433,0.757-0.977,0.757
		h-4.266v23.545c0,0.717-0.367,1.076-1.097,1.076h-3.21c-0.465,0-0.777-0.186-0.937-0.558c-0.039-0.093-0.06-0.246-0.06-0.458
		V127.13h-4.206c-0.717,0-1.076-0.359-1.076-1.076v-3.229C401.942,122.279,402.194,121.954,402.699,121.848"/>
	<path fill="#00953B" d="M434.759,121.848c0.386,0,0.697,0.372,0.937,1.116c0.053,0.053,2.285,5.27,6.698,15.65h0.021v-15.71
		c0-0.505,0.179-0.843,0.537-1.016c0.134-0.026,0.213-0.04,0.239-0.04h3.749c0.345,0,0.598,0.232,0.757,0.697v28.449
		c-0.106,0.505-0.431,0.757-0.977,0.757h-3.328c-0.532,0-0.885-0.319-1.057-0.956c-0.08-0.16-2.38-5.416-6.898-15.769h-0.02v15.709
		c0,0.477-0.186,0.791-0.558,0.937c-0.107,0.053-0.259,0.079-0.459,0.079h-3.21c-0.717,0-1.076-0.359-1.076-1.076v-27.91
		c0-0.465,0.233-0.771,0.697-0.917H434.759z"/>
	<path fill="#00953B" d="M425.657,122.545c-0.159-0.465-0.412-0.697-0.757-0.697h-3.768c-0.506,0.105-0.757,0.431-0.757,0.977v4.27
		l5.282-4.544V122.545z"/>
	<path fill="#00953B" d="M420.374,129.483v21.192c0,0.717,0.359,1.076,1.076,1.076h3.231c0.544,0,0.87-0.252,0.975-0.757V124.94
		L420.374,129.483z"/>
</g>
<g id="Escudo">
	<path id="Cuadro_1" fill="#FFFFFF" d="M183.311,31.209v139.103c-0.546,15.19-12.418,27.38-24.219,28.533H72.428
		c-13.599-0.191-30.05-11.846-30.855-29.041V31.209H183.311z"/>
	<path id="Marco_1" fill="#00953B" d="M159.092,200.069H72.428c-14.522-0.204-31.257-12.659-32.079-30.208L40.348,31.209
		c0-0.676,0.549-1.225,1.225-1.225h141.739c0.676,0,1.225,0.549,1.225,1.225v139.102c-0.589,16.392-13.57,28.603-25.325,29.752
		C159.172,200.068,159.132,200.069,159.092,200.069z M42.798,32.434v137.371c0.757,16.134,16.233,27.628,29.648,27.816h86.586
		c10.709-1.083,22.515-12.313,23.057-27.353l-0.001-137.834H42.798z"/>
	<g id="Marco_2">
		<path fill="#00953B" d="M152.906,173.804l-79.875-0.013c-4.698,0-5.848-2.438-6.393-5.072c-0.011-0.054-0.017-0.11-0.017-0.165
			V65.961c0-0.449,0.364-0.813,0.813-0.813h90.012c0.449,0,0.813,0.364,0.813,0.813v101.647
			C158.18,169.702,156.959,173.647,152.906,173.804z M68.248,168.471c0.441,2.099,1.106,3.694,4.783,3.694l79.843,0.014
			c3.527-0.138,3.752-4.421,3.76-4.603l-0.001-100.801H68.248V168.471z"/>
	</g>
	<path id="siglas_unsm" fill="#00953B" d="M63.172,60.966c-0.537,0-1.107-0.015-1.712-0.047c-4.115-0.216-7.583-3.082-7.573-6.259
		l0.055-17.939c0.001-0.309,0.252-0.559,0.561-0.559l8.412-0.003c0.149,0,0.292,0.059,0.397,0.164
		c0.105,0.105,0.164,0.248,0.164,0.397v16.79c0.076,0.941,1.761,1.46,3.344,1.403c1.358-0.054,2.733-0.553,2.733-1.403V36.724
		c0-0.31,0.251-0.561,0.561-0.561l8.501-0.007c0.31,0,0.561,0.251,0.561,0.561v0.483c1.31-0.445,4.131-1.21,7.575-1.01
		c4.855,0.291,8.116,2.813,8.116,6.277c0,3.197,0.033,11.292,0.033,11.293c-0.05,0.985,0.16,1.016,0.48,1.063
		c4.939-0.034,10.047-0.025,15.105-0.015c2.509,0.004,5.007,0.009,7.475,0.009c0.243,0,0.687-0.575,0.802-1.442
		c0.048-0.37,0.125-1.579-0.881-1.9c-1.32,0.002-2.914,0.014-4.643,0.027c-4.234,0.031-9.504,0.072-13.293-0.021
		c-3.212-0.078-4.962-2.758-4.928-7.545c0.051-6.402,2.728-7.745,4.965-7.745h29.75c1.223,0,2.709,0.757,3.877,1.977
		c0.456,0.477,0.827,0.982,1.102,1.494c1.364-2.492,4.963-3.451,8.337-3.471c4.644-0.03,7.668,0.911,8.89,2.793
		c1.719-2.64,6.359-2.875,9.904-2.793c6.029,0.147,9.085,2.631,9.085,7.382c-0.003,5.576-0.003,16.794-0.003,16.794
		c0,0.31-0.252,0.561-0.561,0.561h-8.496c-0.149,0-0.292-0.059-0.397-0.164c-0.105-0.105-0.165-0.248-0.165-0.397
		c0,0,0.007-10.788,0.007-16.799c0-0.078-0.066-0.189-0.183-0.304c-0.577-0.568-1.952-0.953-2.846-0.966
		c-1.186,0.014-3.07,0.59-3.07,1.248v16.822c0,0.31-0.252,0.561-0.561,0.561h-8.463c-0.31,0-0.561-0.251-0.561-0.561V43.566
		c0-0.357-0.268-0.663-0.797-0.911c-0.568-0.266-1.381-0.419-2.229-0.419c-1.497,0-3.045,0.498-3.045,1.33v16.799
		c0,0.31-0.252,0.561-0.561,0.561h-8.484c-0.149,0-0.292-0.059-0.397-0.164c-0.105-0.106-0.165-0.248-0.165-0.397
		c0,0,0.009-11.108,0.009-16.155c0-1.147-0.694-1.827-1.957-1.916l-21.099,0.001c-1.307,0.288-1.245,1.647-1.218,1.92
		c0.066,0.689,0.456,1.402,0.994,1.402c1.148,0,3.296-0.008,5.803-0.018c3.515-0.013,7.736-0.029,10.897-0.029
		c3.837,0,5.974,2.758,6.014,7.765c0.02,2.696-0.774,5.116-2.121,6.473c-0.725,0.731-1.584,1.117-2.484,1.117
		c-9.302,0-34.701,0.007-34.701,0.007c-1.282,0.053-2.362-0.709-3.034-1.355c-1.027-0.987-1.772-2.355-1.772-3.252
		c0-3.843,0-6.356,0.053-12.649c0.007-1.047-0.639-1.646-1.182-1.963c-1.123-0.655-2.781-0.683-3.86-0.064
		c-0.508,0.292-1.113,0.861-1.113,1.92v16.794c0,0.31-0.251,0.561-0.561,0.561h-8.501c-0.31,0-0.561-0.251-0.561-0.561v-0.342
		C68.511,60.42,66.476,60.966,63.172,60.966z M55.063,37.285l-0.053,17.379c-0.008,2.553,3.034,4.952,6.51,5.135
		c5.894,0.306,8.275-1.112,8.298-1.126c0.173-0.108,0.392-0.113,0.569-0.013c0.178,0.099,0.289,0.285,0.289,0.489v0.655h7.379
		V43.571c0-1.245,0.595-2.273,1.676-2.893c1.422-0.816,3.518-0.788,4.984,0.068c1.13,0.66,1.748,1.704,1.739,2.941
		c-0.053,6.288-0.053,8.8-0.053,12.64c0,0.448,0.496,1.547,1.427,2.443c0.728,0.7,1.52,1.061,2.234,1.042
		c0.022,0,25.422-0.007,34.723-0.007c0.602,0,1.17-0.264,1.687-0.785c1.125-1.133,1.813-3.307,1.795-5.674
		c-0.035-4.414-1.681-6.652-4.891-6.652c-3.16,0-7.379,0.016-10.893,0.029c-2.509,0.009-4.658,0.018-5.807,0.018
		c-1.088,0-1.976-1.016-2.11-2.417c-0.128-1.327,0.493-2.813,2.17-3.139c0.035-0.007,0.072-0.01,0.107-0.01h21.196
		c1.891,0.131,3.04,1.294,3.04,3.036c0,4.367-0.007,13.275-0.009,15.594h7.361V43.566c0-2.529,4.683-2.953,6.873-1.927
		c0.931,0.436,1.444,1.12,1.444,1.927v16.238h7.341V43.543c0-1.737,2.869-2.355,4.178-2.37c1.13-0.024,2.82,0.472,3.649,1.289
		c0.428,0.422,0.518,0.833,0.518,1.104c0,5.192-0.005,13.948-0.007,16.238h7.373c0-2.337,0.001-11.403,0.003-16.234
		c0-4.138-2.538-6.127-7.989-6.259c-3.666-0.086-8.631,0.157-9.338,3.243c-0.059,0.257-0.296,0.477-0.553,0.436
		c-0.265-0.003-0.491-0.19-0.543-0.448c-0.555-2.706-4.864-3.265-8.326-3.23c-3.673,0.022-7.646,1.211-7.786,4.483
		c0,0.003,0,0.006,0,0.008c-0.013,0.31-0.277,0.555-0.584,0.536c-0.31-0.013-0.55-0.274-0.537-0.583c0-0.001,0-0.001,0-0.001l0,0
		c0.036-0.841-0.468-1.892-1.349-2.812c-0.949-0.991-2.153-1.631-3.066-1.631h-29.75c-2.515,0-3.808,2.231-3.843,6.632
		c-0.021,2.884,0.628,6.337,3.833,6.415c3.771,0.092,9.032,0.052,13.257,0.021c1.766-0.013,3.393-0.025,4.73-0.027h0.001
		c0.049,0,0.098,0.006,0.146,0.019c1.282,0.344,1.976,1.581,1.769,3.15c-0.159,1.201-0.867,2.418-1.915,2.418
		c-2.469,0-4.967-0.004-7.477-0.009c-5.055-0.009-10.16-0.018-15.182,0.009c-1.15-0.162-1.593-0.841-1.522-2.206l0,0
		c-0.001,0-0.034-8.074-0.034-11.266c0-2.875-2.771-4.899-7.06-5.156c-4.418-0.26-7.811,1.198-7.845,1.214
		c-0.172,0.075-0.373,0.059-0.532-0.045c-0.158-0.104-0.254-0.28-0.254-0.47v-0.731l-7.379,0.006v16.226
		c0,1.419-1.531,2.433-3.81,2.524c-2.071,0.075-4.365-0.659-4.509-2.48l-0.002-16.273L55.063,37.285z"/>
	<g id="Laurel_y_cruz">
		<g>
			<path fill="#00953B" d="M151.975,133.659c0,0-0.318,0.979-0.952,2.663c-0.633,1.684-1.586,4.077-2.898,6.87
				c-1.327,2.783-2.977,6.015-5.262,9.162c-1.141,1.574-2.448,3.128-4.026,4.478c-0.8,0.658-1.649,1.293-2.616,1.764
				c-0.486,0.244-0.931,0.441-1.407,0.658c-0.484,0.197-0.965,0.414-1.452,0.595c-3.886,1.507-7.951,2.416-11.725,3.178
				c-1.881,0.401-3.71,0.708-5.403,1.116c-1.704,0.368-3.28,0.812-4.683,1.343c-1.395,0.538-2.62,1.16-3.603,1.868
				c-0.984,0.705-1.714,1.484-2.274,2.159c-0.268,0.348-0.516,0.658-0.688,0.956c-0.184,0.291-0.341,0.538-0.448,0.752
				c-0.228,0.421-0.349,0.648-0.349,0.648l-0.002,0.007c-0.021,0.033-0.06,0.043-0.095,0.023c-0.031-0.013-0.044-0.05-0.033-0.08
				c0,0,0.088-0.244,0.251-0.705c0.069-0.234,0.204-0.501,0.358-0.822c0.139-0.331,0.35-0.678,0.586-1.076
				c0.485-0.779,1.194-1.671,2.179-2.513c0.981-0.845,2.228-1.641,3.675-2.282c1.441-0.658,3.074-1.17,4.803-1.624
				c1.733-0.418,3.563-0.822,5.457-1.156c3.779-0.698,7.809-1.39,11.629-2.767c0.48-0.164,0.938-0.358,1.41-0.538
				c0.464-0.194,0.961-0.398,1.395-0.601c0.886-0.411,1.693-0.982,2.464-1.587c1.529-1.246,2.838-2.727,3.991-4.24
				c2.302-3.044,4.066-6.182,5.458-8.912c1.392-2.743,2.413-5.096,3.098-6.753c0.684-1.661,1.026-2.626,1.026-2.626
				c0.016-0.037,0.056-0.057,0.092-0.04C151.966,133.585,151.985,133.626,151.975,133.659"/>
			<g>
				<g>
					<path fill="#00953B" d="M129.451,170.105c-0.178,0-0.355-0.067-0.491-0.204l-7.372-7.388l-0.699-7.002
						c-0.038-0.381,0.24-0.72,0.62-0.758c0.373-0.042,0.72,0.24,0.758,0.62l0.65,6.511l7.023,7.04
						c0.27,0.271,0.269,0.709-0.002,0.98C129.805,170.038,129.627,170.105,129.451,170.105z"/>
				</g>
				<g>
					<path fill="#00953B" d="M133.584,169.11c-0.165,0-0.33-0.058-0.463-0.177l-8.193-7.353l-0.932-6.582
						c-0.054-0.379,0.21-0.73,0.588-0.783c0.389-0.06,0.73,0.21,0.783,0.588l0.862,6.083l7.818,7.015
						c0.285,0.255,0.308,0.693,0.053,0.979C133.962,169.032,133.773,169.11,133.584,169.11z"/>
				</g>
				<g>
					<path fill="#00953B" d="M137.414,168.047c-0.157,0-0.314-0.053-0.444-0.16l-8.344-6.964l-1.142-6.613
						c-0.065-0.378,0.188-0.736,0.565-0.801c0.386-0.066,0.736,0.188,0.801,0.565l1.054,6.111l7.954,6.638
						c0.293,0.246,0.333,0.682,0.088,0.976C137.809,167.963,137.612,168.047,137.414,168.047z"/>
				</g>
				<g>
					<path fill="#00953B" d="M140.96,166.233c-0.139,0-0.279-0.041-0.402-0.129l-8.687-6.207l-1.182-6.795
						c-0.066-0.377,0.186-0.736,0.563-0.801c0.382-0.069,0.737,0.187,0.801,0.563l1.085,6.237l8.225,5.876
						c0.311,0.223,0.384,0.655,0.161,0.967C141.389,166.132,141.176,166.233,140.96,166.233z"/>
				</g>
				<g>
					<path fill="#00953B" d="M144.562,163.987c-0.127,0-0.256-0.035-0.371-0.108l-8.656-5.507l-1.57-6.571
						c-0.089-0.373,0.141-0.746,0.512-0.835c0.373-0.087,0.746,0.141,0.835,0.512l1.44,6.026l8.181,5.205
						c0.323,0.205,0.418,0.634,0.213,0.956C145.016,163.874,144.792,163.987,144.562,163.987z"/>
				</g>
				<g>
					<path fill="#00953B" d="M147.529,160.336c-0.096,0-0.193-0.021-0.286-0.062l-8.525-3.866l-1.968-6.505
						c-0.11-0.367,0.097-0.753,0.462-0.864c0.37-0.109,0.754,0.097,0.864,0.462l1.785,5.905l7.954,3.606
						c0.348,0.159,0.503,0.569,0.345,0.918C148.044,160.184,147.792,160.336,147.529,160.336z"/>
				</g>
				<g>
					<path fill="#00953B" d="M149.268,156.466c-0.069,0-0.139-0.011-0.209-0.033l-7.751-2.446l-1.908-6.39
						c-0.11-0.367,0.099-0.753,0.466-0.862c0.368-0.111,0.753,0.099,0.862,0.466l1.697,5.686l7.051,2.225
						c0.365,0.115,0.568,0.505,0.452,0.869C149.835,156.276,149.562,156.466,149.268,156.466z"/>
				</g>
				<g>
					<path fill="#00953B" d="M150.987,152.332c-0.03,0-0.061-0.002-0.092-0.006l-7.462-0.991l-1.812-6.156
						c-0.108-0.367,0.103-0.752,0.469-0.861c0.37-0.106,0.753,0.102,0.861,0.469l1.557,5.292l6.57,0.874
						c0.379,0.05,0.646,0.398,0.595,0.778C151.627,152.079,151.329,152.332,150.987,152.332z"/>
				</g>
				<g>
					<path fill="#00953B" d="M151.906,148.259c-0.006,0-0.012,0-0.018,0l-6.787-0.181l-1.433-5.503
						c-0.097-0.371,0.125-0.749,0.495-0.845c0.371-0.097,0.749,0.125,0.845,0.495l1.171,4.495l5.745,0.154
						c0.383,0.01,0.685,0.329,0.674,0.711C152.588,147.961,152.28,148.259,151.906,148.259z"/>
				</g>
				<g>
					<path fill="#00953B" d="M146.973,144.63l-1.36-5.114c-0.074-0.278,0.091-0.562,0.368-0.636
						c0.282-0.074,0.561,0.091,0.636,0.368l1.136,4.268l5.086-0.452c0.282-0.036,0.537,0.185,0.563,0.472
						c0.026,0.285-0.185,0.538-0.472,0.563L146.973,144.63z"/>
				</g>
				<g>
					<path fill="#00953B" d="M148.63,141.461l-1.595-4.906c-0.089-0.273,0.06-0.566,0.334-0.655c0.273-0.089,0.566,0.06,0.655,0.334
						l1.31,4.029l4.417-0.87c0.276-0.06,0.555,0.127,0.61,0.41c0.055,0.281-0.128,0.555-0.41,0.61L148.63,141.461z"/>
				</g>
				<g>
					<path fill="#00953B" d="M149.882,138.558l-0.794-4.313c-0.052-0.282,0.135-0.553,0.417-0.605
						c0.286-0.045,0.553,0.135,0.605,0.417l0.57,3.104l3.434-1.253c0.272-0.099,0.568,0.041,0.667,0.31
						c0.098,0.27-0.041,0.568-0.31,0.667L149.882,138.558z"/>
				</g>
			</g>
		</g>
		<g>
			<path fill="#00953B" d="M74.427,138.775c0,0,0.307,0.892,0.952,2.406c0.648,1.51,1.636,3.646,3.055,6.075
				c0.714,1.213,1.533,2.499,2.496,3.782c0.965,1.28,2.039,2.593,3.316,3.766c1.259,1.186,2.727,2.252,4.336,2.994
				c0.426,0.181,0.854,0.364,1.282,0.551c0.428,0.157,0.849,0.331,1.286,0.485c0.873,0.314,1.757,0.605,2.652,0.855
				c3.586,1.026,7.289,1.597,10.773,2.265c1.733,0.364,3.423,0.712,5.001,1.179c1.58,0.451,3.058,0.999,4.357,1.661
				c1.304,0.652,2.406,1.444,3.271,2.256c0.441,0.394,0.804,0.822,1.137,1.206c0.298,0.421,0.582,0.792,0.78,1.166
				c0.225,0.358,0.392,0.695,0.525,0.989c0.15,0.291,0.252,0.548,0.319,0.762c0.15,0.418,0.23,0.645,0.23,0.645
				c0.013,0.033-0.004,0.074-0.041,0.09c-0.034,0.007-0.068-0.003-0.085-0.037l-0.002-0.003c0,0-0.11-0.207-0.322-0.591
				c-0.097-0.197-0.231-0.431-0.407-0.695c-0.163-0.271-0.361-0.578-0.618-0.889c-0.489-0.642-1.152-1.367-2.031-2.048
				c-0.87-0.688-1.963-1.31-3.225-1.851c-1.258-0.541-2.69-0.989-4.239-1.37c-1.551-0.371-3.203-0.732-4.934-1.052
				c-3.448-0.698-7.182-1.443-10.816-2.61c-0.908-0.291-1.807-0.612-2.694-0.956c-0.444-0.17-0.882-0.361-1.324-0.541
				c-0.425-0.197-0.847-0.391-1.271-0.585c-1.742-0.865-3.228-2.022-4.505-3.288c-1.285-1.263-2.358-2.626-3.289-3.97
				c-0.934-1.343-1.714-2.676-2.388-3.923c-1.342-2.506-2.251-4.692-2.845-6.232c-0.593-1.544-0.865-2.449-0.865-2.449
				c-0.011-0.037,0.006-0.077,0.044-0.087C74.376,138.721,74.414,138.738,74.427,138.775"/>
			<path fill="#00953B" d="M94.488,171.702c6.826-2.84,5.832-10.098,5.832-10.098C92.72,164.621,94.488,171.702,94.488,171.702"/>
			<path fill="#00953B" d="M83.192,168.501c8.799,0.227,10.901-8.009,10.901-8.009C84.357,160.077,83.192,168.501,83.192,168.501"/>
			<path fill="#00953B" d="M96.214,149.083c-2.964,6.927,3.245,12.474,3.245,12.474C102.874,153.965,96.214,149.083,96.214,149.083"
				/>
			<path fill="#00953B" d="M89.942,159.141c4.66-6.419-0.428-13.403-0.428-13.403C84.241,152.735,89.942,159.141,89.942,159.141"/>
			<path fill="#00953B" d="M76.597,160.364c6.318,3.128,11.066-2.259,11.066-2.259C80.735,154.523,76.597,160.364,76.597,160.364"/>
			<path fill="#00953B" d="M84.578,143.002c-5.192,4.771-1.879,11.137-1.879,11.137C88.537,148.966,84.578,143.002,84.578,143.002"
				/>
			<path fill="#00953B" d="M82.132,153.193c-4.811-4.164-9.775-0.525-9.775-0.525C77.604,157.363,82.132,153.193,82.132,153.193"/>
			<path fill="#00953B" d="M78.307,147.513c-3.254-3.318-7.085-0.966-7.085-0.966C74.764,150.28,78.307,147.513,78.307,147.513"/>
			<path fill="#00953B" d="M78.375,147.763c4.219-3.733,1.663-8.889,1.663-8.889C75.304,142.925,78.375,147.763,78.375,147.763"/>
			<path fill="#00953B" d="M76.052,142.661c1.987-4.434-1.853-7.568-1.853-7.568C71.919,139.954,76.052,142.661,76.052,142.661"/>
			<path fill="#00953B" d="M75.791,142.815c-0.683-4.411-5.21-4.915-5.21-4.915C71.249,142.788,75.791,142.815,75.791,142.815"/>
		</g>
		<polygon fill="#B42025" points="118.561,162.82 113.912,162.82 113.912,158.172 110.808,158.172 110.808,162.82 106.159,162.82 
			106.159,165.921 110.808,165.921 110.808,170.572 113.912,170.572 113.912,165.921 118.561,165.921 		"/>
	</g>
	<g id="Tarapoto">
		<path fill="#00953B" d="M87.598,75.967l3.889-2.006l0.514,1l-1.661,0.854l2.38,4.615l-1.147,0.591l-2.379-4.614l-1.658,0.854
			l-0.204-0.394C87.166,76.545,87.278,76.13,87.598,75.967"/>
		<path fill="#00953B" d="M95.106,72.557l4.36,5.101l-1.278,0.483l-0.849-1.057l-2.282,0.866l0.067,1.355l-1.296,0.489L93.71,73.53
			c-0.012-0.292,0.129-0.494,0.426-0.606L95.106,72.557z M94.998,76.825l1.622-0.614l-1.766-2.198L94.998,76.825z"/>
		<path fill="#00953B" d="M103.502,73.631c0.282,0.033,0.513,0.134,0.686,0.295c0.154,0.183,0.276,0.481,0.394,0.872l0.324,1.196
			c0.051,0.189,0.155,0.307,0.291,0.363l-1.385,0.308c-0.092-0.103-0.147-0.223-0.186-0.349c-0.046-0.084-0.143-0.433-0.285-1.03
			c-0.212-0.734-0.4-0.938-1.143-0.772l-1.343,0.301l0.536,2.392l-1.26,0.28l-1.231-5.501c-0.08-0.35,0.132-0.724,0.484-0.801
			l2.338-0.525c1.281-0.286,2.097,0.047,2.382,1.316C104.277,72.754,104.055,73.336,103.502,73.631 M101.81,71.765l-1.56,0.349
			l0.362,1.621l1.488-0.332c0.597-0.133,0.884-0.429,0.751-1.024C102.724,71.817,102.369,71.64,101.81,71.765"/>
		<path fill="#00953B" d="M109.136,69.655l2.723,6.133l-1.363,0.097l-0.511-1.254l-2.435,0.177l-0.322,1.319l-1.379,0.099
			l1.672-6.033c0.071-0.286,0.264-0.438,0.58-0.461L109.136,69.655z M107.816,73.72l1.731-0.127l-1.068-2.616L107.816,73.72z"/>
		<path fill="#00953B" d="M115.578,73.794l-1.594-0.111l-0.16,2.241l-1.285-0.089l0.398-5.625c0.024-0.36,0.335-0.654,0.695-0.629
			l2.139,0.152c1.334,0.095,1.977,0.856,1.886,2.172C117.569,73.146,116.836,73.885,115.578,73.794 M115.336,72.632
			c0.646,0.058,0.992-0.226,1.036-0.837c0.043-0.611-0.241-0.94-0.842-0.982l-1.315-0.094l-0.13,1.825L115.336,72.632z"/>
		<path fill="#00953B" d="M118.607,73.133c0.408-1.888,1.804-2.947,3.638-2.55c1.846,0.397,2.677,1.955,2.274,3.827
			c-0.41,1.896-1.768,2.945-3.647,2.537C118.991,76.541,118.2,75.023,118.607,73.133 M119.869,73.405
			c-0.262,1.207,0.079,2.232,1.235,2.479c1.15,0.25,1.883-0.504,2.154-1.749c0.261-1.216-0.094-2.205-1.249-2.456
			C120.854,71.434,120.129,72.207,119.869,73.405"/>
		<path fill="#00953B" d="M127.001,71.925l4.121,1.474l-0.379,1.057l-1.757-0.627l-1.748,4.889l-1.216-0.434l1.748-4.89
			l-1.756-0.627l0.148-0.418C126.284,72.004,126.66,71.805,127.001,71.925"/>
		<path fill="#00953B" d="M130.576,76.565c0.86-1.732,2.469-2.413,4.153-1.581c1.689,0.834,2.116,2.547,1.271,4.262
			c-0.863,1.743-2.434,2.426-4.159,1.576C130.117,79.967,129.719,78.301,130.576,76.565 M131.736,77.14
			c-0.549,1.104-0.471,2.18,0.588,2.706c1.058,0.522,1.951-0.03,2.515-1.17c0.554-1.118,0.45-2.164-0.608-2.686
			C133.172,75.465,132.278,76.039,131.736,77.14"/>
	</g>
	<g id="Letras_UNSM">
		<path fill-rule="evenodd" clip-rule="evenodd" fill="#00953B" d="M61.901,65.961H50.664c-2.148,0-3.905,1.758-3.905,3.905v0.555
			c0,2.15,1.757,3.904,3.905,3.904h11.236v-2.824H51.635c-0.746,0-1.358-0.611-1.358-1.357c0-0.748,0.611-1.359,1.358-1.359h10.266
			V65.961z"/>
		<polygon fill-rule="evenodd" clip-rule="evenodd" fill="#00953B" points="46.871,75.983 61.901,75.983 61.901,77.805 
			61.901,78.526 61.901,80.347 50.484,83.609 61.901,83.609 61.901,86.152 46.871,86.152 46.871,84.639 46.871,83.609 
			46.871,82.097 59.385,78.526 46.871,78.526 		"/>
		<rect x="46.871" y="88.104" fill-rule="evenodd" clip-rule="evenodd" fill="#00953B" width="15.03" height="2.542"/>
		<polygon fill-rule="evenodd" clip-rule="evenodd" fill="#00953B" points="61.901,91.898 46.871,94.415 46.871,96.038 
			46.871,96.959 46.871,98.581 61.901,101.097 61.901,98.557 49.619,96.497 61.901,94.441 		"/>
		<polygon fill-rule="evenodd" clip-rule="evenodd" fill="#00953B" points="61.901,102.344 46.871,102.344 46.871,102.86 
			46.871,104.886 46.871,109.783 50.018,109.783 50.018,104.886 53.041,104.886 53.041,109.564 56.19,109.564 56.19,104.886 
			58.753,104.886 58.753,109.783 61.901,109.783 61.901,104.886 61.901,102.86 		"/>
		<path fill-rule="evenodd" clip-rule="evenodd" fill="#00953B" d="M58.887,113.765v1.976c0,0.73-0.596,1.325-1.324,1.325h-2.063
			c-0.729,0-1.326-0.595-1.326-1.325v-1.976H58.887z M61.901,111.222h-15.03v2.543h3.957v2.432c0,0-0.054,1.225-3.957,0.976v2.581
			c0,0,5.192,0.346,5.782-1.733c0,0,0.773,1.602,4.125,1.545c3.353-0.057,4.776-0.145,5.122-1.935v-3.867v-0.7V111.222z"/>
		<rect x="46.871" y="131.23" fill-rule="evenodd" clip-rule="evenodd" fill="#00953B" width="15.03" height="2.543"/>
		<path fill-rule="evenodd" clip-rule="evenodd" fill="#00953B" d="M50.371,120.784h1.718v2.874h-1.437c0,0-1.068,0.371-1.105,1.477
			c-0.036,1.103,0.628,1.804,1.622,1.804c0.994,0,1.877-0.184,1.951-2.469c0.073-2.285,0.516-3.204,3.205-3.686h2.077
			c1.924,0,3.499,1.577,3.499,3.502v1.584c0,1.925-1.575,3.499-3.499,3.499h-1.488v-2.723h1.436c0,0,0.807-0.297,0.845-1.403
			c0.034-1.106-0.511-1.841-1.361-1.878c-0.844-0.033-1.877,0.187-1.95,2.469c-0.067,2.072-0.435,3.017-2.505,3.535h-3.008
			c-1.926,0-3.499-1.574-3.499-3.499v-1.584C46.871,122.361,48.444,120.784,50.371,120.784"/>
		<path fill-rule="evenodd" clip-rule="evenodd" fill="#00953B" d="M49.946,138.25h8.88v2.386c0,0.855-0.7,1.554-1.555,1.554h-5.769
			c-0.855,0-1.556-0.698-1.556-1.554V138.25z M61.901,135.634v5.65c0,1.724-1.411,3.134-3.136,3.134h-8.759
			c-1.725,0-3.135-1.41-3.135-3.134v-5.65H61.901z"/>
		<path fill-rule="evenodd" clip-rule="evenodd" fill="#00953B" d="M55.68,148.99h2.774c0.52,0,0.944,0.434,0.944,0.962v1.423
			c0,0.531-0.424,0.962-0.944,0.962H55.68V148.99z M46.871,145.896v3.094h5.976v3.348h-5.976v3.101H59.21
			c1.482,0,2.691-1.24,2.691-2.743v-4.06c0-1.51-1.209-2.74-2.691-2.74H46.871z"/>
		<path fill-rule="evenodd" clip-rule="evenodd" fill="#00953B" d="M49.946,159.839h8.88v2.386c0,0.855-0.7,1.554-1.555,1.554
			h-5.769c-0.855,0-1.556-0.698-1.556-1.554V159.839z M61.901,157.223v5.65c0,1.724-1.411,3.138-3.136,3.138h-8.759
			c-1.725,0-3.135-1.413-3.135-3.138v-5.65H61.901z"/>
		<polygon fill-rule="evenodd" clip-rule="evenodd" fill="#00953B" points="162.78,65.899 177.812,65.899 177.812,67.604 
			177.812,68.277 177.812,69.98 166.392,73.028 177.812,73.028 177.812,75.403 162.78,75.403 162.78,73.992 162.78,73.028 
			162.78,71.617 175.296,68.277 162.78,68.277 		"/>
		<rect x="162.78" y="77.896" fill-rule="evenodd" clip-rule="evenodd" fill="#00953B" width="15.032" height="2.598"/>
		<polygon fill-rule="evenodd" clip-rule="evenodd" fill="#00953B" points="166.433,85.066 177.812,85.066 177.812,87.663 
			166.433,87.663 166.433,90.114 162.78,90.114 162.78,87.663 162.78,85.066 162.78,82.616 166.433,82.616 		"/>
		<path fill-rule="evenodd" clip-rule="evenodd" fill="#00953B" d="M165.795,97.572v-1.977c0-0.728,0.596-1.328,1.325-1.328h2.063
			c0.731,0,1.327,0.6,1.327,1.328v1.977H165.795z M162.78,100.112h15.032v-2.54h-3.96V95.14c0,0,0.056-1.224,3.96-0.976v-2.58
			c0,0-5.193-0.35-5.782,1.733c0,0-0.776-1.602-4.125-1.549c-3.356,0.056-4.777,0.149-5.125,1.934v3.87v0.699V100.112z"/>
		<path fill-rule="evenodd" clip-rule="evenodd" fill="#00953B" d="M169.005,104.884h-2.777c-0.522,0-0.946,0.433-0.946,0.961v1.424
			c0,0.527,0.423,0.96,0.946,0.96h2.777V104.884z M177.812,101.785v3.099h-5.977v3.345h5.977v3.098h-12.339
			c-1.482,0-2.692-1.232-2.692-2.74v-4.059c0-1.51,1.21-2.743,2.692-2.743H177.812z"/>
		<polygon fill-rule="evenodd" clip-rule="evenodd" fill="#00953B" points="177.812,113.502 162.78,113.502 162.78,114.617 
			162.78,116.044 162.78,117.16 172.532,119.494 162.78,121.827 162.78,123.19 162.78,124.373 162.78,125.733 177.812,125.733 
			177.812,123.19 167.702,123.19 177.812,120.774 177.812,120.757 177.812,118.231 177.812,118.216 168.743,116.044 
			177.812,116.044 		"/>
		<polygon fill-rule="evenodd" clip-rule="evenodd" fill="#00953B" points="162.78,132.6 177.812,132.6 177.812,134.304 
			177.812,134.975 177.812,136.68 166.392,139.727 177.812,139.727 177.812,142.103 162.78,142.103 162.78,140.689 162.78,139.727 
			162.78,138.314 175.296,134.975 162.78,134.975 		"/>
		<path fill-rule="evenodd" clip-rule="evenodd" fill="#00953B" d="M169.005,147.493h-2.777c-0.522,0-0.946,0.434-0.946,0.962v1.423
			c0,0.528,0.423,0.962,0.946,0.962h2.777V147.493z M177.812,144.395v3.098h-5.977v3.348h5.977v3.097h-12.339
			c-1.482,0-2.692-1.236-2.692-2.743v-4.057c0-1.51,1.21-2.743,2.692-2.743H177.812z"/>
		<path fill-rule="evenodd" clip-rule="evenodd" fill="#00953B" d="M166.282,156.077h1.719v2.877h-1.438c0,0-1.07,0.367-1.105,1.47
			c-0.038,1.106,0.625,1.808,1.622,1.808c0.992,0,1.875-0.184,1.951-2.473c0.074-2.279,0.516-3.201,3.204-3.682h2.077
			c1.924,0,3.498,1.577,3.498,3.499v1.587c0,1.925-1.575,3.502-3.498,3.502h-1.486v-2.73h1.438c0,0,0.804-0.298,0.84-1.4
			c0.036-1.109-0.511-1.841-1.359-1.878c-0.844-0.037-1.877,0.187-1.951,2.469c-0.068,2.068-0.436,3.021-2.506,3.539h-3.006
			c-1.926,0-3.502-1.577-3.502-3.502v-1.587C162.78,157.654,164.356,156.077,166.282,156.077"/>
		<path fill-rule="evenodd" clip-rule="evenodd" fill="#00953B" d="M125.125,184.901v-2.877c0-0.538,0.448-0.979,0.992-0.979h1.473
			c0.545,0,0.991,0.441,0.991,0.979v2.877H125.125z M121.926,194.036h3.199v-6.195h3.456v6.195h3.199v-12.798
			c0-1.534-1.275-2.787-2.832-2.787h-4.191c-1.556,0-2.83,1.253-2.83,2.787V194.036z"/>
		<polygon fill-rule="evenodd" clip-rule="evenodd" fill="#00953B" points="133.484,178.579 136.394,178.579 136.394,190.588 
			141.111,190.588 141.111,194.036 136.394,194.036 135.803,194.036 133.484,194.036 		"/>
		<path fill-rule="evenodd" clip-rule="evenodd" fill="#00953B" d="M51.834,182.438l2.549,3.251l5.341-4.421
			c0,0,0.666-0.22,0.516,0.735c-0.148,0.959-0.221,7.041-0.221,7.041l2.394,1.654l8.807-12.12l-3.094-2.58l-3.207,4.494l0.48-5.784
			l-1.799-1.728L51.834,182.438z"/>
		<path fill-rule="evenodd" clip-rule="evenodd" fill="#00953B" d="M72.775,184.583l0.966-2.727c0,0,0.406-1.547,1.512-1.474
			c1.104,0.073,1.03,0.956,0.919,1.841c-0.028,0.231-0.129,1.139-0.265,2.359H72.775z M74.866,194.036h4.087v-12.988
			c0,0-0.184-2.767-2.983-2.947c-2.797-0.187-4.037,1.768-4.037,1.768l-6.152,12.267l3.833,1.323l2.253-6.332h3.756
			C75.266,190.377,74.866,194.036,74.866,194.036"/>
		<path fill-rule="evenodd" clip-rule="evenodd" fill="#00953B" d="M102.308,190.758L102.308,190.758
			c-1.022,0-1.859-0.835-1.859-1.858v-5.189c0-1.023,0.836-1.855,1.859-1.855c1.022,0,1.857,0.832,1.857,1.855v5.189
			C104.165,189.923,103.329,190.758,102.308,190.758 M102.13,178.579h0.354c2.555,0,4.643,2.088,4.643,4.645v6.165
			c0,2.556-2.088,4.648-4.643,4.648h-0.354c-2.555,0-4.642-2.092-4.642-4.648v-6.165C97.487,180.667,99.575,178.579,102.13,178.579"
			/>
		<path fill-rule="evenodd" clip-rule="evenodd" fill="#00953B" d="M85.776,178.579h0.356c2.553,0,4.643,2.088,4.643,4.645v1.089
			h-2.963v-0.601c0-1.023-0.837-1.855-1.86-1.855c-1.019,0-1.857,0.832-1.857,1.855v5.189c0,1.022,0.838,1.858,1.857,1.858
			c1.023,0,1.86-0.835,1.86-1.858v-0.598h2.963v1.086c0,2.556-2.09,4.648-4.643,4.648h-0.356c-2.553,0-4.644-2.092-4.644-4.648
			v-6.165C81.133,180.667,83.223,178.579,85.776,178.579"/>
		<rect x="92.414" y="178.579" fill-rule="evenodd" clip-rule="evenodd" fill="#00953B" width="3.009" height="15.458"/>
		<polygon fill-rule="evenodd" clip-rule="evenodd" fill="#00953B" points="120.016,178.579 120.016,194.036 118.047,194.036 
			117.272,194.036 115.305,194.036 111.787,182.294 111.787,194.036 109.044,194.036 109.044,178.579 110.672,178.579 
			111.787,178.579 113.417,178.579 117.272,191.447 117.272,178.579 		"/>
		<path fill-rule="evenodd" clip-rule="evenodd" fill="#00953B" d="M152.296,181.008l4.116,8.38l3.59-1.901
			c0,0,0.952-0.458-0.092-1.687c-1.045-1.23-4.359-5.253-4.359-5.253s-0.737-0.979-1.812-0.424
			C152.664,180.674,152.296,181.008,152.296,181.008 M154.278,193.351l9.608-4.237c0,0,1.168-1.871-0.091-3.405
			c-1.257-1.537-7.766-7.832-7.766-7.832s-2.213-1.196-4.144-0.488c-1.935,0.705-3.335,1.811-3.335,1.811L154.278,193.351z"/>
		<path fill-rule="evenodd" clip-rule="evenodd" fill="#00953B" d="M156.258,175.849l11.788,10.686c0,0,4.359-3.682,7.247-8.965
			l-2.734-2.239c0,0-1.809,4.053-4.174,6.172l-2.348-2.005l1.457-1.865l-2.61-2.349c0,0-0.972,1.119-1.617,1.848l-2.221-1.895
			l2.672-3.067l-2.424-2.058C161.292,170.111,159.358,172.784,156.258,175.849"/>
	</g>
	<path id="Circulo_celeste" fill-rule="evenodd" clip-rule="evenodd" fill="#00A0DF" d="M112.398,85.862
		c16.509-0.082,29.95,12.935,30.027,29.065c0.078,16.132-13.249,29.281-29.753,29.354c-16.507,0.08-29.954-12.935-30.031-29.066
		C82.564,99.089,95.891,85.942,112.398,85.862"/>
	<path id="Engranaje" fill-rule="evenodd" clip-rule="evenodd" fill="#898A8D" d="M112.75,83.583
		c1.963-0.008,3.884,0.16,5.751,0.484l1.502-4.943l5.813,1.648l-1.251,4.989c1.588,0.622,3.11,1.356,4.558,2.207l2.978-3.891
		l4.864,3.623l-2.741,3.976c1.295,1.159,2.5,2.422,3.589,3.774l3.882-2.408l3.28,5.128l-3.715,2.574
		c0.804,1.571,1.486,3.22,2.026,4.932l4.243-0.82l1.28,5.971l-4.26,1.048c0.087,0.957,0.142,1.931,0.142,2.912
		c0.004,0.826-0.023,1.643-0.084,2.458l4.251,0.747l-0.886,6.043l-4.473-0.558c-0.492,1.717-1.124,3.368-1.895,4.946l3.911,2.336
		l-2.947,5.336l-4.29-2.282c-1.042,1.356-2.191,2.63-3.441,3.806l3.081,3.886l-4.618,3.94l-3.473-3.966
		c-1.398,0.865-2.87,1.634-4.399,2.282l1.634,5.086l-5.696,2.028l-1.978-5.239c-1.657,0.344-3.352,0.555-5.095,0.628l-0.319,5.574
		l-6.035-0.197l0.039-5.717c-1.789-0.274-3.518-0.695-5.194-1.246l-2.335,5.059l-5.538-2.439l2.086-5.193
		c-1.336-0.762-2.608-1.621-3.814-2.56l-3.794,3.816l-4.366-4.224l3.571-3.97c-1.099-1.283-2.089-2.653-2.974-4.1l-4.642,2.092
		l-2.592-5.513l4.498-2.309c-0.584-1.661-1.042-3.375-1.341-5.149l-4.864,0.257l-0.458-6.094l4.898-0.508
		c0.065-1.885,0.305-3.731,0.694-5.524l-4.571-1.54l1.778-5.839l4.777,1.348c0.797-1.757,1.742-3.433,2.831-5.004l-3.763-3.24
		l3.793-4.751l4.082,3.169c1.259-1.208,2.616-2.313,4.062-3.298l-2.441-4.551l5.235-3.05l2.753,4.563
		c1.666-0.707,3.407-1.278,5.21-1.699l-0.604-5.27l5.988-0.85l0.871,5.298C112.12,83.59,112.438,83.583,112.75,83.583
		 M112.766,87.925c15.235-0.069,27.642,11.966,27.718,26.882c0.069,14.919-12.228,27.072-27.458,27.149
		c-15.23,0.07-27.647-11.966-27.71-26.884C85.243,100.153,97.533,87.997,112.766,87.925"/>
	<g id="Mapa">
		<path fill="#FFE800" d="M135.438,121.016l-12.38-8.842l0.389-0.909l2.192-0.014l1.116,1.981l1.172,0.18l1.937-1.096l-0.265-4.761
			l0.951-1.083l-0.414-1.388l-1.689-1.832l-3.799-0.02l0.006,1.512h-0.369v0.215l-0.511,0.509h-0.103
			c-0.232,0-0.486,0.247-0.486,0.472l-0.027,0.112c-0.072,0.143-0.458,0.854-0.95,0.858c-0.31,0-0.873,0.004-1.266,0.007
			l-3.838,0.015l-0.949,0.309l-0.052-0.037c-0.026-0.147-0.071-0.286-0.119-0.425l1.061-0.345l3.893-0.015
			c0.394-0.003,0.958-0.007,1.268-0.007c0.102-0.001,0.33-0.258,0.484-0.54c0.037-0.436,0.43-0.836,0.87-0.894l0.227-0.226v-0.505
			h0.369l-0.005-1.018l-2.883-0.015l-2.166-1.843l-1.369-1.326l-2.672,1.306l-1.543-0.092l-1.071,0.876l-0.448-1.826l0.111-2.324
			l-0.622-0.315l-0.844-0.435l-0.985-0.941l-3.773,0.12l-2.806-2.757l-1.65,0.009L99.3,94.006l0.429,2.61
			c0.488-0.003,1.011-0.005,1.5-0.007l1.245-0.006c0.002,0,0.005,0,0.007,0c0.652,0,1.222,0.682,1.638,1.18
			c0.096,0.115,0.179,0.215,0.248,0.286c0.529,0.536,0.971,1.162,1.399,1.767c0.419,0.594,0.854,1.208,1.36,1.72
			c0.169,0.172,0.581,0.085,0.979,0.001c0.49-0.104,1.045-0.221,1.431,0.09c0.263,0.212,0.392,0.577,0.395,1.116
			c0.001,0.238-0.002,0.475-0.005,0.708c-0.013,1.005-0.024,1.96,0.322,2.556c-0.106,0.146-0.2,0.3-0.278,0.463
			c-0.565-0.712-0.558-1.835-0.542-3.026c0.003-0.231,0.006-0.465,0.005-0.699c-0.002-0.375-0.073-0.621-0.21-0.732
			c-0.202-0.163-0.616-0.076-1.017,0.009c-0.504,0.106-1.076,0.227-1.435-0.139c-0.536-0.541-0.981-1.173-1.413-1.783
			c-0.417-0.589-0.847-1.198-1.347-1.706c-0.077-0.078-0.169-0.189-0.275-0.315c-0.313-0.375-0.837-1.001-1.256-1.001
			c-0.001,0-0.002,0-0.003,0l-1.247,0.006c-0.516,0.002-1.073,0.004-1.582,0.007l-0.319,1.815l2.265,2.612l3.827,1.517l1.381,2.025
			l-0.551,1.849l-1.368-0.001l-0.489,2.327l-5.091-0.185l0.582,3.21l-1.472,0.654l0.092,1.715l1.678,1.856l-8.629,8.162
			c-0.144,0.136-0.155,0.361-0.025,0.51c0.073,0.084,0.176,0.128,0.28,0.128c0.08,0,0.161-0.026,0.229-0.08l8.019-6.343l1.531,1.259
			c0.104,1.079,1.365,2.158,0.312,3.241l0.107,1.529l1.355,0.756l0.967,3.014c0,0,0.516,0.267,1.254,0.656l0.279,0.135l-0.003,0.01
			l-1.66,5.833l6.432-2.743l0.025,0.322l0,0c0.001,0.018,0.003,0.033,0.004,0.051l0.006,0.082l0.001,0
			c0.066,0.809,0.142,1.468,0.194,2.306l2-0.123l0.305-0.019l4.307-0.265l0.251-0.836l0.094-0.293l0.645,0.306l0.009,0.342
			l0.032,1.257l0.764-0.879l0.208-0.239l0.891,0.423l1.544,0.733l0.283-0.122l1.971-1.438l-0.221-1.93l1.669-1.821l0.161-2.856
			l-0.987-1.147l-0.558-2.056l-2.083-4.269l-0.143-4.323c0.06-0.057,0.124-0.106,0.183-0.164c0.291-0.284,0.579-0.583,0.857-0.891
			l11.997,6.913c0.058,0.033,0.122,0.049,0.184,0.049c0.122,0,0.241-0.06,0.311-0.17
			C135.641,121.351,135.599,121.131,135.438,121.016z"/>
	</g>
	<path id="Compas_y_torre" fill="#898A8D" d="M135.331,121.167l-19.4-13.857c-0.213-1.396-1.487-2.439-3.02-2.438
		c-1.651,0.009-2.995,1.245-3.034,2.78l-6.205,5.825c-0.26-0.271-0.517-0.554-0.768-0.856c-0.031-0.038-0.077-0.062-0.125-0.066
		c-0.006,0-0.011,0-0.016,0c-0.044,0-0.086,0.015-0.119,0.044l-2.248,1.897c-0.038,0.032-0.062,0.078-0.065,0.128
		c-0.004,0.05,0.013,0.099,0.046,0.136c0.277,0.311,0.578,0.624,0.917,0.953l-9.611,9.09c-0.072,0.068-0.078,0.181-0.013,0.255
		c0.037,0.042,0.088,0.064,0.14,0.064c0.04,0,0.081-0.013,0.115-0.04l10.531-8.331c1.793,1.455,3.788,2.435,5.879,2.93l-2.75,9.656
		c0.088,0.046,0.182,0.096,0.276,0.145l0.257-0.903l6.567,3.118l-2.052,0.875c0.008,0.112,0.016,0.217,0.024,0.322l2.19-0.934
		l0.015,3.25l0.305-0.019l-0.015-3.272l4.573,2.172l0.089-0.296l-4.386-2.083l6.466-2.757l2.018,6.786l0.283-0.122l-5-16.815
		c1.742-0.773,3.391-1.888,4.863-3.323c0.324-0.315,0.643-0.649,0.949-0.993l12.127,6.989c0.029,0.016,0.06,0.024,0.092,0.024
		c0.06,0,0.12-0.03,0.155-0.085C135.433,121.335,135.411,121.224,135.331,121.167z M109.601,117.037
		c-0.063-0.015-0.126-0.027-0.188-0.043l0.867-3.049l2.488,1.507l0,0.023L109.601,117.037z M112.77,115.785l0.007,1.505
		c-0.259,0.019-0.518,0.044-0.778,0.044c-0.678,0-1.35-0.075-2.014-0.209L112.77,115.785z M110.366,113.64l0.494-1.735l1.741,0.872
		l-2.041,0.981L110.366,113.64z M110.852,113.934l1.905-0.931l0.01,2.091L110.852,113.934z M110.945,111.606l0.42-1.478
		c0.422,0.239,0.889,0.376,1.381,0.404l0.008,1.98L110.945,111.606z M105.056,114.754l5.987-4.59l-1.922,6.749
		C107.693,116.495,106.319,115.772,105.056,114.754z M108.629,119.748c0.926,0.197,1.867,0.309,2.821,0.309
		c0.447,0,0.894-0.027,1.339-0.071l0.023,4.885l-4.904-2.59L108.629,119.748z M107.822,122.582l4.726,2.495l-6.31,3.075
		L107.822,122.582z M106.439,128.394l6.375-3.107l0.029,6.148L106.439,128.394z M111.728,107.697c0-0.649,0.526-1.176,1.176-1.176
		s1.176,0.526,1.176,1.176c0,0.649-0.526,1.176-1.176,1.176S111.728,108.346,111.728,107.697z M113.052,110.536
		c0.447-0.018,0.877-0.129,1.268-0.32l0.447,1.502l0.018-0.009l0.013,0.114l-0.031-0.105l-1.707,0.835L113.052,110.536z
		 M114.845,111.982l0.551,1.853l-2.145-1.074L114.845,111.982z M113.062,113.007l2.179,1.091l-2.146,1.194l-0.022-0.014
		L113.062,113.007z M115.521,114.253l0.658,2.213c-0.23,0.095-0.459,0.197-0.692,0.276l-2.125-1.287L115.521,114.253z
		 M113.074,115.637l2.013,1.219c-0.66,0.199-1.329,0.345-2.005,0.415L113.074,115.637z M113.149,131.499l-0.029-6.12l6.425,3.393
		L113.149,131.499z M119.771,128.547l-6.549-3.458l4.822-2.35L119.771,128.547z M117.739,121.714l0.217,0.728l-4.839,2.358
		l-0.023-4.853c0.385-0.047,0.769-0.103,1.15-0.183l3.492,1.955L117.739,121.714z M117.631,121.349l-3.004-1.681
		c0.773-0.184,1.537-0.427,2.284-0.741L117.631,121.349z M116.463,116.351l-1.869-6.284c0.116-0.071,0.231-0.143,0.337-0.23
		l5.89,3.394C119.505,114.61,118.025,115.656,116.463,116.351z"/>
</g>
</svg>
